<mxfile host="app.diagrams.net" modified="2021-03-08T07:24:23.927Z" agent="5.0 (Windows NT 10.0; Win64; x64) AppleWebKit/537.36 (KHTML, like Gecko) Chrome/88.0.4324.190 Safari/537.36" etag="VWfozf8BXQGbxEjHjyqg" version="14.4.3" type="github">
  <diagram id="oyIVsEGwSwmbp5taU-v1" name="Page-1">
    <mxGraphModel dx="1831" dy="1652" grid="1" gridSize="10" guides="1" tooltips="1" connect="1" arrows="1" fold="1" page="1" pageScale="1" pageWidth="850" pageHeight="1100" math="0" shadow="0">
      <root>
        <mxCell id="0" />
        <mxCell id="1" parent="0" />
        <mxCell id="3p21QEx-onqppgCtMkCT-1" value="" style="shape=table;html=1;whiteSpace=wrap;startSize=0;container=1;collapsible=0;childLayout=tableLayout;fillColor=#f8cecc;strokeColor=#b85450;strokeWidth=2;fontFamily=Comic Sans MS;fontStyle=1" vertex="1" parent="1">
          <mxGeometry x="290" y="-490" width="435" height="95" as="geometry" />
        </mxCell>
        <mxCell id="3p21QEx-onqppgCtMkCT-2" value="" style="shape=partialRectangle;html=1;whiteSpace=wrap;collapsible=0;dropTarget=0;pointerEvents=0;fillColor=none;top=0;left=0;bottom=0;right=0;points=[[0,0.5],[1,0.5]];portConstraint=eastwest;fontFamily=Comic Sans MS;" vertex="1" parent="3p21QEx-onqppgCtMkCT-1">
          <mxGeometry width="435" height="25" as="geometry" />
        </mxCell>
        <mxCell id="3p21QEx-onqppgCtMkCT-3" value="key" style="shape=partialRectangle;html=1;whiteSpace=wrap;connectable=0;overflow=hidden;fillColor=none;top=0;left=0;bottom=0;right=0;fontFamily=Comic Sans MS;" vertex="1" parent="3p21QEx-onqppgCtMkCT-2">
          <mxGeometry width="145" height="25" as="geometry" />
        </mxCell>
        <mxCell id="3p21QEx-onqppgCtMkCT-4" value="value" style="shape=partialRectangle;html=1;whiteSpace=wrap;connectable=0;overflow=hidden;fillColor=none;top=0;left=0;bottom=0;right=0;fontFamily=Comic Sans MS;" vertex="1" parent="3p21QEx-onqppgCtMkCT-2">
          <mxGeometry x="145" width="145" height="25" as="geometry" />
        </mxCell>
        <mxCell id="3p21QEx-onqppgCtMkCT-69" value="value" style="shape=partialRectangle;html=1;whiteSpace=wrap;connectable=0;overflow=hidden;fillColor=none;top=0;left=0;bottom=0;right=0;fontFamily=Comic Sans MS;" vertex="1" parent="3p21QEx-onqppgCtMkCT-2">
          <mxGeometry x="290" width="145" height="25" as="geometry" />
        </mxCell>
        <mxCell id="3p21QEx-onqppgCtMkCT-5" value="" style="shape=partialRectangle;html=1;whiteSpace=wrap;collapsible=0;dropTarget=0;pointerEvents=0;fillColor=none;top=0;left=0;bottom=0;right=0;points=[[0,0.5],[1,0.5]];portConstraint=eastwest;fontFamily=Comic Sans MS;" vertex="1" parent="3p21QEx-onqppgCtMkCT-1">
          <mxGeometry y="25" width="435" height="20" as="geometry" />
        </mxCell>
        <mxCell id="3p21QEx-onqppgCtMkCT-6" value="A-ip" style="shape=partialRectangle;html=1;whiteSpace=wrap;connectable=0;overflow=hidden;fillColor=none;top=0;left=0;bottom=0;right=0;fontFamily=Comic Sans MS;" vertex="1" parent="3p21QEx-onqppgCtMkCT-5">
          <mxGeometry width="145" height="20" as="geometry" />
        </mxCell>
        <mxCell id="3p21QEx-onqppgCtMkCT-7" value="A-inbound(15006)" style="shape=partialRectangle;html=1;whiteSpace=wrap;connectable=0;overflow=hidden;fillColor=none;top=0;left=0;bottom=0;right=0;fontFamily=Comic Sans MS;" vertex="1" parent="3p21QEx-onqppgCtMkCT-5">
          <mxGeometry x="145" width="145" height="20" as="geometry" />
        </mxCell>
        <mxCell id="3p21QEx-onqppgCtMkCT-70" value="A-outbound(15001)" style="shape=partialRectangle;html=1;whiteSpace=wrap;connectable=0;overflow=hidden;fillColor=none;top=0;left=0;bottom=0;right=0;fontFamily=Comic Sans MS;" vertex="1" parent="3p21QEx-onqppgCtMkCT-5">
          <mxGeometry x="290" width="145" height="20" as="geometry" />
        </mxCell>
        <mxCell id="3p21QEx-onqppgCtMkCT-8" value="" style="shape=partialRectangle;html=1;whiteSpace=wrap;collapsible=0;dropTarget=0;pointerEvents=0;fillColor=none;top=0;left=0;bottom=0;right=0;points=[[0,0.5],[1,0.5]];portConstraint=eastwest;fontFamily=Comic Sans MS;" vertex="1" parent="3p21QEx-onqppgCtMkCT-1">
          <mxGeometry y="45" width="435" height="25" as="geometry" />
        </mxCell>
        <mxCell id="3p21QEx-onqppgCtMkCT-9" value="B-ip" style="shape=partialRectangle;html=1;whiteSpace=wrap;connectable=0;overflow=hidden;fillColor=none;top=0;left=0;bottom=0;right=0;fontFamily=Comic Sans MS;" vertex="1" parent="3p21QEx-onqppgCtMkCT-8">
          <mxGeometry width="145" height="25" as="geometry" />
        </mxCell>
        <mxCell id="3p21QEx-onqppgCtMkCT-10" value="B-inbound(15006)" style="shape=partialRectangle;html=1;whiteSpace=wrap;connectable=0;overflow=hidden;fillColor=none;top=0;left=0;bottom=0;right=0;fontFamily=Comic Sans MS;" vertex="1" parent="3p21QEx-onqppgCtMkCT-8">
          <mxGeometry x="145" width="145" height="25" as="geometry" />
        </mxCell>
        <mxCell id="3p21QEx-onqppgCtMkCT-71" value="B-outbound(15001)" style="shape=partialRectangle;html=1;whiteSpace=wrap;connectable=0;overflow=hidden;fillColor=none;top=0;left=0;bottom=0;right=0;fontFamily=Comic Sans MS;" vertex="1" parent="3p21QEx-onqppgCtMkCT-8">
          <mxGeometry x="290" width="145" height="25" as="geometry" />
        </mxCell>
        <mxCell id="3p21QEx-onqppgCtMkCT-11" value="" style="shape=partialRectangle;html=1;whiteSpace=wrap;collapsible=0;dropTarget=0;pointerEvents=0;fillColor=none;top=0;left=0;bottom=0;right=0;points=[[0,0.5],[1,0.5]];portConstraint=eastwest;fontFamily=Comic Sans MS;" vertex="1" parent="3p21QEx-onqppgCtMkCT-1">
          <mxGeometry y="70" width="435" height="25" as="geometry" />
        </mxCell>
        <mxCell id="3p21QEx-onqppgCtMkCT-12" value="" style="shape=partialRectangle;html=1;whiteSpace=wrap;connectable=0;overflow=hidden;fillColor=none;top=0;left=0;bottom=0;right=0;fontFamily=Comic Sans MS;" vertex="1" parent="3p21QEx-onqppgCtMkCT-11">
          <mxGeometry width="145" height="25" as="geometry" />
        </mxCell>
        <mxCell id="3p21QEx-onqppgCtMkCT-13" value="" style="shape=partialRectangle;html=1;whiteSpace=wrap;connectable=0;overflow=hidden;fillColor=none;top=0;left=0;bottom=0;right=0;fontFamily=Comic Sans MS;" vertex="1" parent="3p21QEx-onqppgCtMkCT-11">
          <mxGeometry x="145" width="145" height="25" as="geometry" />
        </mxCell>
        <mxCell id="3p21QEx-onqppgCtMkCT-72" style="shape=partialRectangle;html=1;whiteSpace=wrap;connectable=0;overflow=hidden;fillColor=none;top=0;left=0;bottom=0;right=0;fontFamily=Comic Sans MS;" vertex="1" parent="3p21QEx-onqppgCtMkCT-11">
          <mxGeometry x="290" width="145" height="25" as="geometry" />
        </mxCell>
        <mxCell id="3p21QEx-onqppgCtMkCT-14" value="map_proxy_envoy" style="text;html=1;strokeColor=none;fillColor=none;align=center;verticalAlign=middle;whiteSpace=wrap;rounded=0;shadow=0;sketch=1;fontFamily=Comic Sans MS;fontSize=17;fontStyle=1" vertex="1" parent="1">
          <mxGeometry x="341" y="-530" width="188" height="20" as="geometry" />
        </mxCell>
        <mxCell id="3p21QEx-onqppgCtMkCT-15" value="" style="shape=table;html=1;whiteSpace=wrap;startSize=0;container=1;collapsible=0;childLayout=tableLayout;shadow=0;fillColor=#ffe6cc;strokeColor=#d79b00;strokeWidth=2;rounded=0;sketch=0;fontFamily=Comic Sans MS;fontStyle=0" vertex="1" parent="1">
          <mxGeometry x="-90" y="-640" width="240" height="40" as="geometry" />
        </mxCell>
        <mxCell id="3p21QEx-onqppgCtMkCT-16" value="" style="shape=partialRectangle;html=1;whiteSpace=wrap;collapsible=0;dropTarget=0;pointerEvents=0;fillColor=none;top=0;left=0;bottom=0;right=0;points=[[0,0.5],[1,0.5]];portConstraint=eastwest;fontFamily=Comic Sans MS;" vertex="1" parent="3p21QEx-onqppgCtMkCT-15">
          <mxGeometry width="240" height="20" as="geometry" />
        </mxCell>
        <mxCell id="3p21QEx-onqppgCtMkCT-17" value="sip" style="shape=partialRectangle;html=1;whiteSpace=wrap;connectable=0;overflow=hidden;fillColor=none;top=0;left=0;bottom=0;right=0;fontFamily=Comic Sans MS;" vertex="1" parent="3p21QEx-onqppgCtMkCT-16">
          <mxGeometry width="60" height="20" as="geometry" />
        </mxCell>
        <mxCell id="3p21QEx-onqppgCtMkCT-18" value="sport" style="shape=partialRectangle;html=1;whiteSpace=wrap;connectable=0;overflow=hidden;fillColor=none;top=0;left=0;bottom=0;right=0;fontFamily=Comic Sans MS;" vertex="1" parent="3p21QEx-onqppgCtMkCT-16">
          <mxGeometry x="60" width="60" height="20" as="geometry" />
        </mxCell>
        <mxCell id="3p21QEx-onqppgCtMkCT-19" value="dip" style="shape=partialRectangle;html=1;whiteSpace=wrap;connectable=0;overflow=hidden;fillColor=none;top=0;left=0;bottom=0;right=0;fontFamily=Comic Sans MS;" vertex="1" parent="3p21QEx-onqppgCtMkCT-16">
          <mxGeometry x="120" width="60" height="20" as="geometry" />
        </mxCell>
        <mxCell id="3p21QEx-onqppgCtMkCT-20" value="dport" style="shape=partialRectangle;html=1;whiteSpace=wrap;connectable=0;overflow=hidden;fillColor=none;top=0;left=0;bottom=0;right=0;fontFamily=Comic Sans MS;" vertex="1" parent="3p21QEx-onqppgCtMkCT-16">
          <mxGeometry x="180" width="60" height="20" as="geometry" />
        </mxCell>
        <mxCell id="3p21QEx-onqppgCtMkCT-21" value="" style="shape=partialRectangle;html=1;whiteSpace=wrap;collapsible=0;dropTarget=0;pointerEvents=0;fillColor=none;top=0;left=0;bottom=0;right=0;points=[[0,0.5],[1,0.5]];portConstraint=eastwest;fontFamily=Comic Sans MS;" vertex="1" parent="3p21QEx-onqppgCtMkCT-15">
          <mxGeometry y="20" width="240" height="20" as="geometry" />
        </mxCell>
        <mxCell id="3p21QEx-onqppgCtMkCT-22" value="127.0.0.1" style="shape=partialRectangle;html=1;whiteSpace=wrap;connectable=0;overflow=hidden;fillColor=none;top=0;left=0;bottom=0;right=0;fontFamily=Comic Sans MS;" vertex="1" parent="3p21QEx-onqppgCtMkCT-21">
          <mxGeometry width="60" height="20" as="geometry" />
        </mxCell>
        <mxCell id="3p21QEx-onqppgCtMkCT-23" value="15001" style="shape=partialRectangle;html=1;whiteSpace=wrap;connectable=0;overflow=hidden;fillColor=none;top=0;left=0;bottom=0;right=0;fontFamily=Comic Sans MS;" vertex="1" parent="3p21QEx-onqppgCtMkCT-21">
          <mxGeometry x="60" width="60" height="20" as="geometry" />
        </mxCell>
        <mxCell id="3p21QEx-onqppgCtMkCT-24" value="pod1_ip" style="shape=partialRectangle;html=1;whiteSpace=wrap;connectable=0;overflow=hidden;fillColor=none;top=0;left=0;bottom=0;right=0;fontFamily=Comic Sans MS;" vertex="1" parent="3p21QEx-onqppgCtMkCT-21">
          <mxGeometry x="120" width="60" height="20" as="geometry" />
        </mxCell>
        <mxCell id="3p21QEx-onqppgCtMkCT-25" value="random" style="shape=partialRectangle;html=1;whiteSpace=wrap;connectable=0;overflow=hidden;fillColor=none;top=0;left=0;bottom=0;right=0;fontFamily=Comic Sans MS;" vertex="1" parent="3p21QEx-onqppgCtMkCT-21">
          <mxGeometry x="180" width="60" height="20" as="geometry" />
        </mxCell>
        <mxCell id="3p21QEx-onqppgCtMkCT-26" value="outbound_envoy_socket" style="text;html=1;strokeColor=none;fillColor=none;align=center;verticalAlign=middle;whiteSpace=wrap;rounded=0;shadow=0;sketch=1;fontFamily=Comic Sans MS;fontSize=17;fontStyle=1" vertex="1" parent="1">
          <mxGeometry x="-64" y="-670" width="188" height="20" as="geometry" />
        </mxCell>
        <mxCell id="3p21QEx-onqppgCtMkCT-41" value="" style="shape=table;html=1;whiteSpace=wrap;startSize=0;container=1;collapsible=0;childLayout=tableLayout;fillColor=#f8cecc;strokeColor=#b85450;strokeWidth=2;fontFamily=Comic Sans MS;fontStyle=1" vertex="1" parent="1">
          <mxGeometry x="290" y="-280" width="290" height="100" as="geometry" />
        </mxCell>
        <mxCell id="3p21QEx-onqppgCtMkCT-42" value="" style="shape=partialRectangle;html=1;whiteSpace=wrap;collapsible=0;dropTarget=0;pointerEvents=0;fillColor=none;top=0;left=0;bottom=0;right=0;points=[[0,0.5],[1,0.5]];portConstraint=eastwest;fontFamily=Comic Sans MS;" vertex="1" parent="3p21QEx-onqppgCtMkCT-41">
          <mxGeometry width="290" height="25" as="geometry" />
        </mxCell>
        <mxCell id="3p21QEx-onqppgCtMkCT-43" value="key" style="shape=partialRectangle;html=1;whiteSpace=wrap;connectable=0;overflow=hidden;fillColor=none;top=0;left=0;bottom=0;right=0;fontFamily=Comic Sans MS;" vertex="1" parent="3p21QEx-onqppgCtMkCT-42">
          <mxGeometry width="145" height="25" as="geometry" />
        </mxCell>
        <mxCell id="3p21QEx-onqppgCtMkCT-44" value="value" style="shape=partialRectangle;html=1;whiteSpace=wrap;connectable=0;overflow=hidden;fillColor=none;top=0;left=0;bottom=0;right=0;fontFamily=Comic Sans MS;" vertex="1" parent="3p21QEx-onqppgCtMkCT-42">
          <mxGeometry x="145" width="145" height="25" as="geometry" />
        </mxCell>
        <mxCell id="3p21QEx-onqppgCtMkCT-45" value="" style="shape=partialRectangle;html=1;whiteSpace=wrap;collapsible=0;dropTarget=0;pointerEvents=0;fillColor=none;top=0;left=0;bottom=0;right=0;points=[[0,0.5],[1,0.5]];portConstraint=eastwest;fontFamily=Comic Sans MS;" vertex="1" parent="3p21QEx-onqppgCtMkCT-41">
          <mxGeometry y="25" width="290" height="25" as="geometry" />
        </mxCell>
        <mxCell id="3p21QEx-onqppgCtMkCT-46" value="pod1_ip:random_port" style="shape=partialRectangle;html=1;whiteSpace=wrap;connectable=0;overflow=hidden;fillColor=none;top=0;left=0;bottom=0;right=0;fontFamily=Comic Sans MS;" vertex="1" parent="3p21QEx-onqppgCtMkCT-45">
          <mxGeometry width="145" height="25" as="geometry" />
        </mxCell>
        <mxCell id="3p21QEx-onqppgCtMkCT-47" value="svc1_ip:svc1_port" style="shape=partialRectangle;html=1;whiteSpace=wrap;connectable=0;overflow=hidden;fillColor=none;top=0;left=0;bottom=0;right=0;fontFamily=Comic Sans MS;" vertex="1" parent="3p21QEx-onqppgCtMkCT-45">
          <mxGeometry x="145" width="145" height="25" as="geometry" />
        </mxCell>
        <mxCell id="3p21QEx-onqppgCtMkCT-48" value="" style="shape=partialRectangle;html=1;whiteSpace=wrap;collapsible=0;dropTarget=0;pointerEvents=0;fillColor=none;top=0;left=0;bottom=0;right=0;points=[[0,0.5],[1,0.5]];portConstraint=eastwest;fontFamily=Comic Sans MS;" vertex="1" parent="3p21QEx-onqppgCtMkCT-41">
          <mxGeometry y="50" width="290" height="25" as="geometry" />
        </mxCell>
        <mxCell id="3p21QEx-onqppgCtMkCT-49" value="" style="shape=partialRectangle;html=1;whiteSpace=wrap;connectable=0;overflow=hidden;fillColor=none;top=0;left=0;bottom=0;right=0;fontFamily=Comic Sans MS;" vertex="1" parent="3p21QEx-onqppgCtMkCT-48">
          <mxGeometry width="145" height="25" as="geometry" />
        </mxCell>
        <mxCell id="3p21QEx-onqppgCtMkCT-50" value="" style="shape=partialRectangle;html=1;whiteSpace=wrap;connectable=0;overflow=hidden;fillColor=none;top=0;left=0;bottom=0;right=0;fontFamily=Comic Sans MS;" vertex="1" parent="3p21QEx-onqppgCtMkCT-48">
          <mxGeometry x="145" width="145" height="25" as="geometry" />
        </mxCell>
        <mxCell id="3p21QEx-onqppgCtMkCT-51" value="" style="shape=partialRectangle;html=1;whiteSpace=wrap;collapsible=0;dropTarget=0;pointerEvents=0;fillColor=none;top=0;left=0;bottom=0;right=0;points=[[0,0.5],[1,0.5]];portConstraint=eastwest;fontFamily=Comic Sans MS;" vertex="1" parent="3p21QEx-onqppgCtMkCT-41">
          <mxGeometry y="75" width="290" height="25" as="geometry" />
        </mxCell>
        <mxCell id="3p21QEx-onqppgCtMkCT-52" value="" style="shape=partialRectangle;html=1;whiteSpace=wrap;connectable=0;overflow=hidden;fillColor=none;top=0;left=0;bottom=0;right=0;fontFamily=Comic Sans MS;" vertex="1" parent="3p21QEx-onqppgCtMkCT-51">
          <mxGeometry width="145" height="25" as="geometry" />
        </mxCell>
        <mxCell id="3p21QEx-onqppgCtMkCT-53" value="" style="shape=partialRectangle;html=1;whiteSpace=wrap;connectable=0;overflow=hidden;fillColor=none;top=0;left=0;bottom=0;right=0;fontFamily=Comic Sans MS;" vertex="1" parent="3p21QEx-onqppgCtMkCT-51">
          <mxGeometry x="145" width="145" height="25" as="geometry" />
        </mxCell>
        <mxCell id="3p21QEx-onqppgCtMkCT-54" value="map_proxy_client" style="text;html=1;strokeColor=none;fillColor=none;align=center;verticalAlign=middle;whiteSpace=wrap;rounded=0;shadow=0;sketch=1;fontFamily=Comic Sans MS;fontSize=17;fontStyle=1" vertex="1" parent="1">
          <mxGeometry x="341" y="-310" width="188" height="20" as="geometry" />
        </mxCell>
        <mxCell id="3p21QEx-onqppgCtMkCT-55" value="" style="shape=table;html=1;whiteSpace=wrap;startSize=0;container=1;collapsible=0;childLayout=tableLayout;fillColor=#f8cecc;strokeColor=#b85450;strokeWidth=2;fontFamily=Comic Sans MS;fontStyle=1" vertex="1" parent="1">
          <mxGeometry x="290" y="-70" width="290" height="100" as="geometry" />
        </mxCell>
        <mxCell id="3p21QEx-onqppgCtMkCT-56" value="" style="shape=partialRectangle;html=1;whiteSpace=wrap;collapsible=0;dropTarget=0;pointerEvents=0;fillColor=none;top=0;left=0;bottom=0;right=0;points=[[0,0.5],[1,0.5]];portConstraint=eastwest;fontFamily=Comic Sans MS;" vertex="1" parent="3p21QEx-onqppgCtMkCT-55">
          <mxGeometry width="290" height="25" as="geometry" />
        </mxCell>
        <mxCell id="3p21QEx-onqppgCtMkCT-57" value="key" style="shape=partialRectangle;html=1;whiteSpace=wrap;connectable=0;overflow=hidden;fillColor=none;top=0;left=0;bottom=0;right=0;fontFamily=Comic Sans MS;" vertex="1" parent="3p21QEx-onqppgCtMkCT-56">
          <mxGeometry width="145" height="25" as="geometry" />
        </mxCell>
        <mxCell id="3p21QEx-onqppgCtMkCT-58" value="value" style="shape=partialRectangle;html=1;whiteSpace=wrap;connectable=0;overflow=hidden;fillColor=none;top=0;left=0;bottom=0;right=0;fontFamily=Comic Sans MS;" vertex="1" parent="3p21QEx-onqppgCtMkCT-56">
          <mxGeometry x="145" width="145" height="25" as="geometry" />
        </mxCell>
        <mxCell id="3p21QEx-onqppgCtMkCT-59" value="" style="shape=partialRectangle;html=1;whiteSpace=wrap;collapsible=0;dropTarget=0;pointerEvents=0;fillColor=none;top=0;left=0;bottom=0;right=0;points=[[0,0.5],[1,0.5]];portConstraint=eastwest;fontFamily=Comic Sans MS;" vertex="1" parent="3p21QEx-onqppgCtMkCT-55">
          <mxGeometry y="25" width="290" height="25" as="geometry" />
        </mxCell>
        <mxCell id="3p21QEx-onqppgCtMkCT-60" value="pod1_ip:random_port" style="shape=partialRectangle;html=1;whiteSpace=wrap;connectable=0;overflow=hidden;fillColor=none;top=0;left=0;bottom=0;right=0;fontFamily=Comic Sans MS;" vertex="1" parent="3p21QEx-onqppgCtMkCT-59">
          <mxGeometry width="145" height="25" as="geometry" />
        </mxCell>
        <mxCell id="3p21QEx-onqppgCtMkCT-61" value="svc1_ip:svc1_port" style="shape=partialRectangle;html=1;whiteSpace=wrap;connectable=0;overflow=hidden;fillColor=none;top=0;left=0;bottom=0;right=0;fontFamily=Comic Sans MS;" vertex="1" parent="3p21QEx-onqppgCtMkCT-59">
          <mxGeometry x="145" width="145" height="25" as="geometry" />
        </mxCell>
        <mxCell id="3p21QEx-onqppgCtMkCT-62" value="" style="shape=partialRectangle;html=1;whiteSpace=wrap;collapsible=0;dropTarget=0;pointerEvents=0;fillColor=none;top=0;left=0;bottom=0;right=0;points=[[0,0.5],[1,0.5]];portConstraint=eastwest;fontFamily=Comic Sans MS;" vertex="1" parent="3p21QEx-onqppgCtMkCT-55">
          <mxGeometry y="50" width="290" height="25" as="geometry" />
        </mxCell>
        <mxCell id="3p21QEx-onqppgCtMkCT-63" value="" style="shape=partialRectangle;html=1;whiteSpace=wrap;connectable=0;overflow=hidden;fillColor=none;top=0;left=0;bottom=0;right=0;fontFamily=Comic Sans MS;" vertex="1" parent="3p21QEx-onqppgCtMkCT-62">
          <mxGeometry width="145" height="25" as="geometry" />
        </mxCell>
        <mxCell id="3p21QEx-onqppgCtMkCT-64" value="" style="shape=partialRectangle;html=1;whiteSpace=wrap;connectable=0;overflow=hidden;fillColor=none;top=0;left=0;bottom=0;right=0;fontFamily=Comic Sans MS;" vertex="1" parent="3p21QEx-onqppgCtMkCT-62">
          <mxGeometry x="145" width="145" height="25" as="geometry" />
        </mxCell>
        <mxCell id="3p21QEx-onqppgCtMkCT-65" value="" style="shape=partialRectangle;html=1;whiteSpace=wrap;collapsible=0;dropTarget=0;pointerEvents=0;fillColor=none;top=0;left=0;bottom=0;right=0;points=[[0,0.5],[1,0.5]];portConstraint=eastwest;fontFamily=Comic Sans MS;" vertex="1" parent="3p21QEx-onqppgCtMkCT-55">
          <mxGeometry y="75" width="290" height="25" as="geometry" />
        </mxCell>
        <mxCell id="3p21QEx-onqppgCtMkCT-66" value="" style="shape=partialRectangle;html=1;whiteSpace=wrap;connectable=0;overflow=hidden;fillColor=none;top=0;left=0;bottom=0;right=0;fontFamily=Comic Sans MS;" vertex="1" parent="3p21QEx-onqppgCtMkCT-65">
          <mxGeometry width="145" height="25" as="geometry" />
        </mxCell>
        <mxCell id="3p21QEx-onqppgCtMkCT-67" value="" style="shape=partialRectangle;html=1;whiteSpace=wrap;connectable=0;overflow=hidden;fillColor=none;top=0;left=0;bottom=0;right=0;fontFamily=Comic Sans MS;" vertex="1" parent="3p21QEx-onqppgCtMkCT-65">
          <mxGeometry x="145" width="145" height="25" as="geometry" />
        </mxCell>
        <mxCell id="3p21QEx-onqppgCtMkCT-68" value="map_redir" style="text;html=1;strokeColor=none;fillColor=none;align=center;verticalAlign=middle;whiteSpace=wrap;rounded=0;shadow=0;sketch=1;fontFamily=Comic Sans MS;fontSize=17;fontStyle=1" vertex="1" parent="1">
          <mxGeometry x="341" y="-100" width="188" height="20" as="geometry" />
        </mxCell>
      </root>
    </mxGraphModel>
  </diagram>
</mxfile>
